Coordinates
version=1
nRows=19
nColumns=24
inDegrees=yes

Units are S.I. units (second, meters, Newtons, ...)
Angles are in degrees.

endheader
time	pelvis_tilt	pelvis_list	pelvis_rotation	pelvis_tx	pelvis_ty	pelvis_tz	hip_flexion_r	hip_adduction_r	hip_rotation_r	knee_angle_r	ankle_angle_r	subtalar_angle_r	mtp_angle_r	hip_flexion_l	hip_adduction_l	hip_rotation_l	knee_angle_l	ankle_angle_l	subtalar_angle_l	mtp_angle_l	lumbar_extension	lumbar_bending	lumbar_rotation
      0.81683333	      0.83184079	      4.47211293	     -0.83898844	     -0.38701003	      1.02000694	      0.30488361	      9.46208670	     -0.78621133	      4.69891890	    -17.68698214	      7.89153709	    -11.45946042	     -1.87984490	     13.78569519	      3.29803726	     -7.73922493	    -67.19397736	     -0.69539925	    -18.14630340	     -2.62529102	     -2.96859614	     -4.81980169	      2.94076804
      0.82100000	      0.84549349	      4.56380177	     -1.06656554	     -0.38176274	      1.02077848	      0.30523188	      8.98060132	     -0.89977753	      4.74331934	    -17.34372077	      8.01148410	    -11.22303826	     -1.79904415	     14.31290347	      3.35613329	     -7.95044207	    -66.91294173	     -0.38366125	    -17.63578028	     -2.56447384	     -2.98725303	     -4.89440408	      3.40701524
      0.82516667	      0.87369257	      4.66611613	     -1.29239455	     -0.37654777	      1.02152921	      0.30558437	      8.48794080	     -1.02620497	      4.79732773	    -17.00547389	      8.13975697	    -11.00504152	     -1.74094458	     14.81677474	      3.42099280	     -8.15849358	    -66.58563178	     -0.07489308	    -17.05266872	     -2.50421494	     -3.03274845	     -4.99652703	      3.71308421
      0.82933333	      0.89331390	      4.76188075	     -1.52256278	     -0.37134462	      1.02221085	      0.30593042	      8.00964829	     -1.14838313	      4.84976288	    -16.67275087	      8.25604612	    -10.78252532	     -1.68305893	     15.32130335	      3.47171001	     -8.37053234	    -66.21912017	      0.22188023	    -16.45109291	     -2.43249808	     -3.06684426	     -5.09529520	      4.05491830
      0.83350000	      0.90444204	      4.84574674	     -1.74701779	     -0.36614844	      1.02283733	      0.30627841	      7.53888427	     -1.25916203	      4.89879412	    -16.33521088	      8.36648427	    -10.56619627	     -1.62458758	     15.82699523	      3.50213247	     -8.57915008	    -65.81534027	      0.51177091	    -15.82939525	     -2.34986528	     -3.09175365	     -5.18479468	      4.39923556
      0.83766667	      0.92972198	      4.94200935	     -1.97785193	     -0.36096452	      1.02345313	      0.30661364	      7.05687718	     -1.38757328	      4.94977401	    -16.00085053	      8.48155406	    -10.34350567	     -1.56665338	     16.30165899	      3.54745441	     -8.78694654	    -65.35377067	      0.77835368	    -15.21406158	     -2.25932392	     -3.13300811	     -5.28718272	      4.73995215
      0.84183333	      0.94643898	      5.01392594	     -2.19855589	     -0.35578416	      1.02399261	      0.30692520	      6.58033905	     -1.49323038	      4.99136892	    -15.66044039	      8.58836103	    -10.12927180	     -1.50391778	     16.77944473	      3.56153198	     -8.98497454	    -64.86754140	      1.04609471	    -14.58338121	     -2.15222414	     -3.16415972	     -5.35498587	      5.08157787
      0.84600000	      0.95403088	      5.09275674	     -2.42055447	     -0.35061554	      1.02448386	      0.30723614	      6.12141931	     -1.60737090	      5.03438561	    -15.33234340	      8.69702141	     -9.92489016	     -1.44504159	     17.25210199	      3.58065144	     -9.18262574	    -64.32816838	      1.29206352	    -13.96925033	     -2.04436885	     -3.17768679	     -5.42848595	      5.39859657
      0.85016667	      0.96680898	      5.16291403	     -2.63860718	     -0.34546217	      1.02493285	      0.30753701	      5.65656082	     -1.71515899	      5.07406624	    -15.00147855	      8.79479016	     -9.72224482	     -1.39213778	     17.70938771	      3.58752106	     -9.37653114	    -63.75236588	      1.51929574	    -13.36486843	     -1.94154941	     -3.20164601	     -5.49825167	      5.69323355
      0.85433333	      0.97006068	      5.22820054	     -2.84732610	     -0.34030959	      1.02532175	      0.30782270	      5.20068435	     -1.81906456	      5.11296369	    -14.67081236	      8.90283745	     -9.52201915	     -1.34079289	     18.16475158	      3.58719805	     -9.56151975	    -63.13906582	      1.73982396	    -12.78222003	     -1.83674522	     -3.22104484	     -5.56423903	      5.99392145
      0.85850000	      0.98477074	      5.27046374	     -3.04660226	     -0.33518232	      1.02566526	      0.30809560	      4.72619283	     -1.90064853	      5.15076311	    -14.32559402	      8.99711710	     -9.35385723	      0.23768293	     18.59993785	      3.55979853	     -9.73520301	    -62.49531715	      1.89393605	    -12.29028191	      1.59945952	     -3.26293852	     -5.60809213	      6.39409894
      0.86266667	      1.00419747	      5.31430899	     -3.23926050	     -0.33005759	      1.02598947	      0.30835259	      4.24772763	     -1.98641448	      5.18305158	    -13.98662334	      9.11785218	     -9.16706437	      0.23412094	     19.01434656	      3.53679491	     -9.90083106	    -61.81310970	      2.11067075	    -11.74983038	      1.62361247	     -3.31079510	     -5.65876127	      6.64135952
      0.86683333	      0.99081204	      5.37272933	     -3.43433307	     -0.32493013	      1.02621492	      0.30859158	      3.81986096	     -2.08963192	      5.20977128	    -13.67405714	      9.20718842	     -8.98685951	      0.23364461	     19.44830106	      3.52733492	    -10.07341709	    -61.07945215	      2.26743542	    -11.26301857	      1.64692127	     -3.30733079	     -5.71506683	      6.86291993
      0.87100000	      1.00633097	      5.40891197	     -3.61374394	     -0.31980999	      1.02644395	      0.30881478	      3.34638918	     -2.17172285	      5.23303521	    -13.33876053	      9.31711600	     -8.80605058	      0.23479287	     19.83873261	      3.49635862	    -10.22811410	    -60.31940027	      2.43345257	    -10.80111986	      1.67397296	     -3.34768347	     -5.75144766	      7.11968978
      0.87516667	      1.01860998	      5.42125581	     -3.78152044	     -0.31470618	      1.02659823	      0.30901632	      2.87459272	     -2.22859900	      5.25210617	    -13.00572094	      9.46746204	     -8.63215506	      0.23564166	     20.22583785	      3.44065806	    -10.36817273	    -59.54482526	      2.61771707	    -10.37944480	      1.71759075	     -3.39665161	     -5.76236903	      7.45203977
      0.87933333	      1.00033504	      5.44464441	     -3.94492709	     -0.30959310	      1.02666878	      0.30920653	      2.44420907	     -2.29708688	      5.27040366	    -12.68907296	      9.58549565	     -8.46903033	      0.23629111	     20.62776993	      3.39584289	    -10.50730537	    -58.72135518	      2.74991964	    -10.01448294	      1.76441563	     -3.40175131	     -5.78138885	      7.70964611
      0.88350000	      0.98356034	      5.47267876	     -4.09855818	     -0.30448783	      1.02671729	      0.30936767	      2.01358643	     -2.37381906	      5.27766460	    -12.37388187	      9.66958737	     -8.31746071	      0.23749633	     21.01105419	      3.36175817	    -10.63745119	    -57.84864430	      2.83706695	     -9.69935152	      1.79509729	     -3.40582686	     -5.80692691	      7.88172469
      0.88766667	      0.97849135	      5.47528762	     -4.23982522	     -0.29937985	      1.02672533	      0.30951013	      1.56162876	     -2.42415872	      5.28231141	    -12.05050652	      9.78552340	     -8.16824655	      0.23908646	     21.36942688	      3.30167046	    -10.75329036	    -56.95844255	      2.94411319	     -9.40149933	      1.82973103	     -3.43098766	     -5.80460201	      8.10193117
      0.89183333	      0.97894621	      5.47227232	     -4.37075548	     -0.29428272	      1.02669021	      0.30963736	      1.10418170	     -2.46928822	      5.28387906	    -11.73209504	      9.93383877	     -8.01843130	      0.23940847	     21.70907773	      3.23990053	    -10.85821769	    -56.03732346	      3.04135789	     -9.16585120	      1.88209621	     -3.47289340	     -5.79643690	      8.37463947
